<svg xmlns="http://www.w3.org/2000/svg" xmlns:xlink="http://www.w3.org/1999/xlink" width="500" zoomAndPan="magnify" viewBox="0 0 375 374.999991" height="500" preserveAspectRatio="xMidYMid meet" version="1.0"><defs><clipPath id="bbf113f17c"><path d="M 5.234375 5.234375 L 374.984375 5.234375 L 374.984375 374.984375 L 5.234375 374.984375 Z M 5.234375 5.234375 " clip-rule="nonzero"/></clipPath></defs><g clip-path="url(#bbf113f17c)"><path fill="#ffffff" d="M 190.109375 5.234375 C 88 5.234375 5.234375 88 5.234375 190.109375 C 5.234375 292.214844 88 374.984375 190.109375 374.984375 C 292.214844 374.984375 374.984375 292.214844 374.984375 190.109375 C 374.984375 88 292.214844 5.234375 190.109375 5.234375 Z M 225.417969 299.074219 C 219.761719 300.164062 217.746094 296.6875 217.746094 293.691406 C 217.746094 290.015625 217.894531 277.960938 217.894531 262.984375 C 217.894531 252.539062 214.324219 245.71875 210.332031 242.261719 C 235.160156 239.488281 261.246094 230.023438 261.246094 187.019531 C 261.246094 174.800781 256.941406 164.796875 249.785156 156.976562 C 250.929688 154.148438 254.757812 142.761719 248.675781 127.359375 C 248.675781 127.359375 239.339844 124.347656 218.042969 138.839844 C 209.132812 136.363281 199.589844 135.125 190.125 135.070312 C 180.640625 135.125 171.101562 136.363281 162.210938 138.839844 C 140.914062 124.367188 131.558594 127.359375 131.558594 127.359375 C 125.492188 142.78125 129.320312 154.148438 130.46875 156.976562 C 123.332031 164.796875 118.984375 174.800781 118.984375 187.019531 C 118.984375 229.910156 145.015625 239.507812 169.769531 242.335938 C 166.589844 245.125 163.707031 250.0625 162.691406 257.292969 C 156.332031 260.15625 140.191406 265.09375 130.246094 247.992188 C 130.246094 247.992188 124.367188 237.25 113.179688 236.457031 C 113.179688 236.457031 102.292969 236.308594 112.421875 243.257812 C 112.421875 243.257812 119.726562 246.699219 124.792969 259.640625 C 124.792969 259.640625 131.335938 281.417969 162.359375 274.652344 C 162.414062 283.988281 162.503906 291.03125 162.503906 293.691406 C 162.503906 296.652344 160.472656 300.109375 154.890625 299.089844 C 110.574219 284.28125 78.628906 242.335938 78.628906 192.878906 C 78.628906 131.039062 128.542969 80.9375 190.125 80.9375 C 251.707031 80.9375 301.625 131.058594 301.625 192.878906 C 301.625 242.316406 269.714844 284.246094 225.4375 299.074219 Z M 225.417969 299.074219 " fill-opacity="1" fill-rule="nonzero"/></g></svg>