<svg xmlns="http://www.w3.org/2000/svg" xmlns:xlink="http://www.w3.org/1999/xlink" width="500" zoomAndPan="magnify" viewBox="0 0 375 374.999991" height="500" preserveAspectRatio="xMidYMid meet" version="1.0"><defs><g/></defs><path stroke-linecap="butt" transform="matrix(0.000000000000000046, -0.749554, 0.75, 0.000000000000000046, 362.940741, 226.898424)" fill="none" stroke-linejoin="miter" d="M -0.0000186773 3.000887 L 105.072907 3.000887 " stroke="#f3da38" stroke-width="6" stroke-opacity="1" stroke-miterlimit="4"/><g fill="#f3da38" fill-opacity="1"><g transform="translate(14.43517, 197.886016)"><g><path d="M 15.859375 -25.359375 C 17.734375 -25.359375 19.425781 -24.957031 20.9375 -24.15625 C 22.457031 -23.351562 23.648438 -22.144531 24.515625 -20.53125 C 25.378906 -18.925781 25.8125 -16.972656 25.8125 -14.671875 L 25.8125 0 L 21.71875 0 L 21.71875 -14.078125 C 21.71875 -16.566406 21.097656 -18.46875 19.859375 -19.78125 C 18.617188 -21.101562 16.921875 -21.765625 14.765625 -21.765625 C 12.585938 -21.765625 10.851562 -21.082031 9.5625 -19.71875 C 8.28125 -18.351562 7.640625 -16.367188 7.640625 -13.765625 L 7.640625 0 L 3.5 0 L 3.5 -33.625 L 7.640625 -33.625 L 7.640625 -21.359375 C 8.453125 -22.628906 9.578125 -23.613281 11.015625 -24.3125 C 12.453125 -25.007812 14.066406 -25.359375 15.859375 -25.359375 Z M 15.859375 -25.359375 "/></g></g></g><g fill="#f3da38" fill-opacity="1"><g transform="translate(46.286062, 197.886016)"><g><path d="M 26.21875 -13.40625 C 26.21875 -12.613281 26.171875 -11.78125 26.078125 -10.90625 L 6.171875 -10.90625 C 6.328125 -8.445312 7.171875 -6.53125 8.703125 -5.15625 C 10.234375 -3.78125 12.085938 -3.09375 14.265625 -3.09375 C 16.054688 -3.09375 17.546875 -3.507812 18.734375 -4.34375 C 19.929688 -5.175781 20.773438 -6.285156 21.265625 -7.671875 L 25.71875 -7.671875 C 25.050781 -5.285156 23.71875 -3.34375 21.71875 -1.84375 C 19.71875 -0.34375 17.234375 0.40625 14.265625 0.40625 C 11.898438 0.40625 9.785156 -0.117188 7.921875 -1.171875 C 6.066406 -2.234375 4.609375 -3.742188 3.546875 -5.703125 C 2.484375 -7.660156 1.953125 -9.925781 1.953125 -12.5 C 1.953125 -15.070312 2.46875 -17.328125 3.5 -19.265625 C 4.53125 -21.203125 5.972656 -22.691406 7.828125 -23.734375 C 9.691406 -24.785156 11.835938 -25.3125 14.265625 -25.3125 C 16.628906 -25.3125 18.71875 -24.796875 20.53125 -23.765625 C 22.351562 -22.734375 23.753906 -21.316406 24.734375 -19.515625 C 25.722656 -17.710938 26.21875 -15.675781 26.21875 -13.40625 Z M 21.953125 -14.265625 C 21.953125 -15.835938 21.601562 -17.191406 20.90625 -18.328125 C 20.207031 -19.460938 19.257812 -20.328125 18.0625 -20.921875 C 16.863281 -21.515625 15.535156 -21.8125 14.078125 -21.8125 C 11.992188 -21.8125 10.21875 -21.144531 8.75 -19.8125 C 7.28125 -18.476562 6.4375 -16.628906 6.21875 -14.265625 Z M 21.953125 -14.265625 "/></g></g></g><g fill="#f3da38" fill-opacity="1"><g transform="translate(77.228248, 197.886016)"><g><path d="M 1.953125 -12.546875 C 1.953125 -15.085938 2.46875 -17.316406 3.5 -19.234375 C 4.53125 -21.160156 5.945312 -22.65625 7.75 -23.71875 C 9.550781 -24.78125 11.554688 -25.3125 13.765625 -25.3125 C 15.953125 -25.3125 17.847656 -24.835938 19.453125 -23.890625 C 21.054688 -22.953125 22.25 -21.773438 23.03125 -20.359375 L 23.03125 -24.90625 L 27.21875 -24.90625 L 27.21875 0 L 23.03125 0 L 23.03125 -4.640625 C 22.21875 -3.179688 21 -1.972656 19.375 -1.015625 C 17.757812 -0.0664062 15.875 0.40625 13.71875 0.40625 C 11.507812 0.40625 9.507812 -0.132812 7.71875 -1.21875 C 5.9375 -2.3125 4.53125 -3.84375 3.5 -5.8125 C 2.46875 -7.78125 1.953125 -10.023438 1.953125 -12.546875 Z M 23.03125 -12.5 C 23.03125 -14.375 22.648438 -16.007812 21.890625 -17.40625 C 21.140625 -18.800781 20.117188 -19.867188 18.828125 -20.609375 C 17.546875 -21.347656 16.128906 -21.71875 14.578125 -21.71875 C 13.035156 -21.71875 11.628906 -21.351562 10.359375 -20.625 C 9.085938 -19.894531 8.070312 -18.832031 7.3125 -17.4375 C 6.550781 -16.050781 6.171875 -14.421875 6.171875 -12.546875 C 6.171875 -10.628906 6.550781 -8.96875 7.3125 -7.5625 C 8.070312 -6.15625 9.085938 -5.078125 10.359375 -4.328125 C 11.628906 -3.585938 13.035156 -3.21875 14.578125 -3.21875 C 16.128906 -3.21875 17.546875 -3.585938 18.828125 -4.328125 C 20.117188 -5.078125 21.140625 -6.15625 21.890625 -7.5625 C 22.648438 -8.96875 23.03125 -10.613281 23.03125 -12.5 Z M 23.03125 -12.5 "/></g></g></g><g fill="#f3da38" fill-opacity="1"><g transform="translate(110.714818, 197.886016)"><g><path d="M 7.640625 -33.625 L 7.640625 0 L 3.5 0 L 3.5 -33.625 Z M 7.640625 -33.625 "/></g></g></g><g fill="#f3da38" fill-opacity="1"><g transform="translate(124.664152, 197.886016)"><g><path d="M 8.546875 -21.484375 L 8.546875 -6.8125 C 8.546875 -5.601562 8.800781 -4.75 9.3125 -4.25 C 9.832031 -3.75 10.726562 -3.5 12 -3.5 L 15.046875 -3.5 L 15.046875 0 L 11.3125 0 C 9.007812 0 7.28125 -0.53125 6.125 -1.59375 C 4.976562 -2.65625 4.40625 -4.394531 4.40625 -6.8125 L 4.40625 -21.484375 L 1.1875 -21.484375 L 1.1875 -24.90625 L 4.40625 -24.90625 L 4.40625 -31.171875 L 8.546875 -31.171875 L 8.546875 -24.90625 L 15.046875 -24.90625 L 15.046875 -21.484375 Z M 8.546875 -21.484375 "/></g></g></g><g fill="#f3da38" fill-opacity="1"><g transform="translate(143.974875, 197.886016)"><g><path d="M 15.859375 -25.359375 C 17.734375 -25.359375 19.425781 -24.957031 20.9375 -24.15625 C 22.457031 -23.351562 23.648438 -22.144531 24.515625 -20.53125 C 25.378906 -18.925781 25.8125 -16.972656 25.8125 -14.671875 L 25.8125 0 L 21.71875 0 L 21.71875 -14.078125 C 21.71875 -16.566406 21.097656 -18.46875 19.859375 -19.78125 C 18.617188 -21.101562 16.921875 -21.765625 14.765625 -21.765625 C 12.585938 -21.765625 10.851562 -21.082031 9.5625 -19.71875 C 8.28125 -18.351562 7.640625 -16.367188 7.640625 -13.765625 L 7.640625 0 L 3.5 0 L 3.5 -33.625 L 7.640625 -33.625 L 7.640625 -21.359375 C 8.453125 -22.628906 9.578125 -23.613281 11.015625 -24.3125 C 12.453125 -25.007812 14.066406 -25.359375 15.859375 -25.359375 Z M 15.859375 -25.359375 "/></g></g></g><g fill="#f3da38" fill-opacity="1"><g transform="translate(171.767865, 196.901881)"><g><path d="M 1.953125 -12.5 C 1.953125 -15.070312 2.46875 -17.316406 3.5 -19.234375 C 4.53125 -21.160156 5.960938 -22.65625 7.796875 -23.71875 C 9.628906 -24.78125 11.722656 -25.3125 14.078125 -25.3125 C 17.140625 -25.3125 19.660156 -24.566406 21.640625 -23.078125 C 23.628906 -21.597656 24.941406 -19.539062 25.578125 -16.90625 L 21.125 -16.90625 C 20.707031 -18.414062 19.882812 -19.609375 18.65625 -20.484375 C 17.425781 -21.367188 15.898438 -21.8125 14.078125 -21.8125 C 11.722656 -21.8125 9.816406 -21 8.359375 -19.375 C 6.898438 -17.757812 6.171875 -15.46875 6.171875 -12.5 C 6.171875 -9.5 6.898438 -7.179688 8.359375 -5.546875 C 9.816406 -3.910156 11.722656 -3.09375 14.078125 -3.09375 C 15.898438 -3.09375 17.414062 -3.515625 18.625 -4.359375 C 19.84375 -5.210938 20.675781 -6.425781 21.125 -8 L 25.578125 -8 C 24.910156 -5.457031 23.578125 -3.421875 21.578125 -1.890625 C 19.578125 -0.359375 17.078125 0.40625 14.078125 0.40625 C 11.722656 0.40625 9.628906 -0.117188 7.796875 -1.171875 C 5.960938 -2.234375 4.53125 -3.734375 3.5 -5.671875 C 2.46875 -7.617188 1.953125 -9.894531 1.953125 -12.5 Z M 1.953125 -12.5 "/></g></g></g><g fill="#f3da38" fill-opacity="1"><g transform="translate(202.118258, 196.901881)"><g><path d="M 1.953125 -12.546875 C 1.953125 -15.085938 2.46875 -17.316406 3.5 -19.234375 C 4.53125 -21.160156 5.945312 -22.65625 7.75 -23.71875 C 9.550781 -24.78125 11.554688 -25.3125 13.765625 -25.3125 C 15.953125 -25.3125 17.847656 -24.835938 19.453125 -23.890625 C 21.054688 -22.953125 22.25 -21.773438 23.03125 -20.359375 L 23.03125 -24.90625 L 27.21875 -24.90625 L 27.21875 0 L 23.03125 0 L 23.03125 -4.640625 C 22.21875 -3.179688 21 -1.972656 19.375 -1.015625 C 17.757812 -0.0664062 15.875 0.40625 13.71875 0.40625 C 11.507812 0.40625 9.507812 -0.132812 7.71875 -1.21875 C 5.9375 -2.3125 4.53125 -3.84375 3.5 -5.8125 C 2.46875 -7.78125 1.953125 -10.023438 1.953125 -12.546875 Z M 23.03125 -12.5 C 23.03125 -14.375 22.648438 -16.007812 21.890625 -17.40625 C 21.140625 -18.800781 20.117188 -19.867188 18.828125 -20.609375 C 17.546875 -21.347656 16.128906 -21.71875 14.578125 -21.71875 C 13.035156 -21.71875 11.628906 -21.351562 10.359375 -20.625 C 9.085938 -19.894531 8.070312 -18.832031 7.3125 -17.4375 C 6.550781 -16.050781 6.171875 -14.421875 6.171875 -12.546875 C 6.171875 -10.628906 6.550781 -8.96875 7.3125 -7.5625 C 8.070312 -6.15625 9.085938 -5.078125 10.359375 -4.328125 C 11.628906 -3.585938 13.035156 -3.21875 14.578125 -3.21875 C 16.128906 -3.21875 17.546875 -3.585938 18.828125 -4.328125 C 20.117188 -5.078125 21.140625 -6.15625 21.890625 -7.5625 C 22.648438 -8.96875 23.03125 -10.613281 23.03125 -12.5 Z M 23.03125 -12.5 "/></g></g></g><g fill="#f3da38" fill-opacity="1"><g transform="translate(235.603577, 196.901881)"><g><path d="M 7.640625 -20.859375 C 8.359375 -22.273438 9.390625 -23.378906 10.734375 -24.171875 C 12.085938 -24.960938 13.734375 -25.359375 15.671875 -25.359375 L 15.671875 -21.078125 L 14.578125 -21.078125 C 9.953125 -21.078125 7.640625 -18.566406 7.640625 -13.546875 L 7.640625 0 L 3.5 0 L 3.5 -24.90625 L 7.640625 -24.90625 Z M 7.640625 -20.859375 "/></g></g></g><g fill="#f3da38" fill-opacity="1"><g transform="translate(255.322513, 196.901881)"><g><path d="M 26.21875 -13.40625 C 26.21875 -12.613281 26.171875 -11.78125 26.078125 -10.90625 L 6.171875 -10.90625 C 6.328125 -8.445312 7.171875 -6.53125 8.703125 -5.15625 C 10.234375 -3.78125 12.085938 -3.09375 14.265625 -3.09375 C 16.054688 -3.09375 17.546875 -3.507812 18.734375 -4.34375 C 19.929688 -5.175781 20.773438 -6.285156 21.265625 -7.671875 L 25.71875 -7.671875 C 25.050781 -5.285156 23.71875 -3.34375 21.71875 -1.84375 C 19.71875 -0.34375 17.234375 0.40625 14.265625 0.40625 C 11.898438 0.40625 9.785156 -0.117188 7.921875 -1.171875 C 6.066406 -2.234375 4.609375 -3.742188 3.546875 -5.703125 C 2.484375 -7.660156 1.953125 -9.925781 1.953125 -12.5 C 1.953125 -15.070312 2.46875 -17.328125 3.5 -19.265625 C 4.53125 -21.203125 5.972656 -22.691406 7.828125 -23.734375 C 9.691406 -24.785156 11.835938 -25.3125 14.265625 -25.3125 C 16.628906 -25.3125 18.71875 -24.796875 20.53125 -23.765625 C 22.351562 -22.734375 23.753906 -21.316406 24.734375 -19.515625 C 25.722656 -17.710938 26.21875 -15.675781 26.21875 -13.40625 Z M 21.953125 -14.265625 C 21.953125 -15.835938 21.601562 -17.191406 20.90625 -18.328125 C 20.207031 -19.460938 19.257812 -20.328125 18.0625 -20.921875 C 16.863281 -21.515625 15.535156 -21.8125 14.078125 -21.8125 C 11.992188 -21.8125 10.21875 -21.144531 8.75 -19.8125 C 7.28125 -18.476562 6.4375 -16.628906 6.21875 -14.265625 Z M 21.953125 -14.265625 "/></g></g></g><g fill="#f3da38" fill-opacity="1"><g transform="translate(286.260045, 196.901881)"><g/></g></g><path stroke-linecap="butt" transform="matrix(0.000000000000000047, -0.761905, 0.75, 0.000000000000000046, 236.371806, 226.896592)" fill="none" stroke-linejoin="miter" d="M -0.00242182 2.999051 L 20.684833 2.999051 " stroke="#f3da38" stroke-width="6" stroke-opacity="1" stroke-miterlimit="4"/><path stroke-linecap="butt" transform="matrix(-0.750351, -0.000000000000000092, 0.000000000000000092, -0.75, 365.193497, 226.858828)" fill="none" stroke-linejoin="miter" d="M -0.00242018 2.999271 L 166.924677 2.999271 " stroke="#f3da38" stroke-width="6" stroke-opacity="1" stroke-miterlimit="4"/><g fill="#7ed957" fill-opacity="1"><g transform="translate(18.29068, 211.852047)"><g><path d="M 2.78125 0.09375 C 2.34375 0.09375 1.945312 0.015625 1.59375 -0.140625 C 1.25 -0.304688 0.972656 -0.523438 0.765625 -0.796875 C 0.566406 -1.066406 0.460938 -1.375 0.453125 -1.71875 L 1.65625 -1.71875 C 1.675781 -1.476562 1.785156 -1.273438 1.984375 -1.109375 C 2.191406 -0.953125 2.453125 -0.875 2.765625 -0.875 C 3.085938 -0.875 3.335938 -0.9375 3.515625 -1.0625 C 3.691406 -1.1875 3.78125 -1.347656 3.78125 -1.546875 C 3.78125 -1.753906 3.679688 -1.910156 3.484375 -2.015625 C 3.285156 -2.117188 2.972656 -2.226562 2.546875 -2.34375 C 2.117188 -2.457031 1.773438 -2.566406 1.515625 -2.671875 C 1.253906 -2.785156 1.023438 -2.953125 0.828125 -3.171875 C 0.640625 -3.398438 0.546875 -3.695312 0.546875 -4.0625 C 0.546875 -4.351562 0.632812 -4.625 0.8125 -4.875 C 0.988281 -5.125 1.238281 -5.316406 1.5625 -5.453125 C 1.894531 -5.597656 2.269531 -5.671875 2.6875 -5.671875 C 3.320312 -5.671875 3.832031 -5.507812 4.21875 -5.1875 C 4.613281 -4.863281 4.820312 -4.425781 4.84375 -3.875 L 3.703125 -3.875 C 3.679688 -4.125 3.578125 -4.320312 3.390625 -4.46875 C 3.210938 -4.625 2.96875 -4.703125 2.65625 -4.703125 C 2.351562 -4.703125 2.117188 -4.644531 1.953125 -4.53125 C 1.796875 -4.414062 1.71875 -4.257812 1.71875 -4.0625 C 1.71875 -3.914062 1.769531 -3.789062 1.875 -3.6875 C 1.976562 -3.59375 2.109375 -3.515625 2.265625 -3.453125 C 2.421875 -3.398438 2.648438 -3.328125 2.953125 -3.234375 C 3.359375 -3.128906 3.691406 -3.019531 3.953125 -2.90625 C 4.210938 -2.800781 4.4375 -2.640625 4.625 -2.421875 C 4.8125 -2.203125 4.910156 -1.914062 4.921875 -1.5625 C 4.921875 -1.238281 4.832031 -0.953125 4.65625 -0.703125 C 4.476562 -0.453125 4.226562 -0.253906 3.90625 -0.109375 C 3.59375 0.0234375 3.21875 0.09375 2.78125 0.09375 Z M 2.78125 0.09375 "/></g></g></g><g fill="#7ed957" fill-opacity="1"><g transform="translate(23.697418, 211.852047)"><g><path d="M 1.90625 -4.765625 C 2.101562 -5.015625 2.367188 -5.226562 2.703125 -5.40625 C 3.046875 -5.582031 3.429688 -5.671875 3.859375 -5.671875 C 4.347656 -5.671875 4.789062 -5.550781 5.1875 -5.3125 C 5.59375 -5.070312 5.910156 -4.734375 6.140625 -4.296875 C 6.367188 -3.867188 6.484375 -3.375 6.484375 -2.8125 C 6.484375 -2.25 6.367188 -1.742188 6.140625 -1.296875 C 5.910156 -0.859375 5.59375 -0.515625 5.1875 -0.265625 C 4.789062 -0.0234375 4.347656 0.09375 3.859375 0.09375 C 3.429688 0.09375 3.050781 0.0078125 2.71875 -0.15625 C 2.394531 -0.332031 2.125 -0.550781 1.90625 -0.8125 L 1.90625 2.65625 L 0.765625 2.65625 L 0.765625 -5.578125 L 1.90625 -5.578125 Z M 5.3125 -2.8125 C 5.3125 -3.195312 5.226562 -3.53125 5.0625 -3.8125 C 4.90625 -4.09375 4.695312 -4.304688 4.4375 -4.453125 C 4.175781 -4.597656 3.898438 -4.671875 3.609375 -4.671875 C 3.316406 -4.671875 3.039062 -4.59375 2.78125 -4.4375 C 2.519531 -4.289062 2.304688 -4.078125 2.140625 -3.796875 C 1.984375 -3.515625 1.90625 -3.179688 1.90625 -2.796875 C 1.90625 -2.410156 1.984375 -2.070312 2.140625 -1.78125 C 2.304688 -1.5 2.519531 -1.28125 2.78125 -1.125 C 3.039062 -0.976562 3.316406 -0.90625 3.609375 -0.90625 C 3.898438 -0.90625 4.175781 -0.976562 4.4375 -1.125 C 4.695312 -1.28125 4.90625 -1.503906 5.0625 -1.796875 C 5.226562 -2.085938 5.3125 -2.425781 5.3125 -2.8125 Z M 5.3125 -2.8125 "/></g></g></g><g fill="#7ed957" fill-opacity="1"><g transform="translate(30.562156, 211.852047)"><g><path d="M 0.375 -2.8125 C 0.375 -3.375 0.488281 -3.867188 0.71875 -4.296875 C 0.957031 -4.734375 1.273438 -5.070312 1.671875 -5.3125 C 2.078125 -5.550781 2.519531 -5.671875 3 -5.671875 C 3.445312 -5.671875 3.832031 -5.582031 4.15625 -5.40625 C 4.476562 -5.238281 4.738281 -5.023438 4.9375 -4.765625 L 4.9375 -5.578125 L 6.109375 -5.578125 L 6.109375 0 L 4.9375 0 L 4.9375 -0.828125 C 4.738281 -0.566406 4.472656 -0.347656 4.140625 -0.171875 C 3.804688 0.00390625 3.421875 0.09375 2.984375 0.09375 C 2.503906 0.09375 2.066406 -0.0234375 1.671875 -0.265625 C 1.273438 -0.515625 0.957031 -0.859375 0.71875 -1.296875 C 0.488281 -1.742188 0.375 -2.25 0.375 -2.8125 Z M 4.9375 -2.796875 C 4.9375 -3.179688 4.859375 -3.515625 4.703125 -3.796875 C 4.546875 -4.078125 4.335938 -4.289062 4.078125 -4.4375 C 3.828125 -4.59375 3.550781 -4.671875 3.25 -4.671875 C 2.945312 -4.671875 2.664062 -4.597656 2.40625 -4.453125 C 2.15625 -4.304688 1.953125 -4.09375 1.796875 -3.8125 C 1.640625 -3.53125 1.5625 -3.195312 1.5625 -2.8125 C 1.5625 -2.425781 1.640625 -2.085938 1.796875 -1.796875 C 1.953125 -1.503906 2.160156 -1.28125 2.421875 -1.125 C 2.679688 -0.976562 2.957031 -0.90625 3.25 -0.90625 C 3.550781 -0.90625 3.828125 -0.976562 4.078125 -1.125 C 4.335938 -1.28125 4.546875 -1.5 4.703125 -1.78125 C 4.859375 -2.070312 4.9375 -2.410156 4.9375 -2.796875 Z M 4.9375 -2.796875 "/></g></g></g><g fill="#7ed957" fill-opacity="1"><g transform="translate(37.426894, 211.852047)"><g><path d="M 0.375 -2.796875 C 0.375 -3.367188 0.488281 -3.875 0.71875 -4.3125 C 0.957031 -4.75 1.28125 -5.082031 1.6875 -5.3125 C 2.101562 -5.550781 2.578125 -5.671875 3.109375 -5.671875 C 3.785156 -5.671875 4.34375 -5.507812 4.78125 -5.1875 C 5.226562 -4.863281 5.53125 -4.40625 5.6875 -3.8125 L 4.4375 -3.8125 C 4.332031 -4.09375 4.164062 -4.3125 3.9375 -4.46875 C 3.71875 -4.625 3.441406 -4.703125 3.109375 -4.703125 C 2.640625 -4.703125 2.265625 -4.535156 1.984375 -4.203125 C 1.703125 -3.867188 1.5625 -3.398438 1.5625 -2.796875 C 1.5625 -2.191406 1.703125 -1.71875 1.984375 -1.375 C 2.265625 -1.039062 2.640625 -0.875 3.109375 -0.875 C 3.773438 -0.875 4.21875 -1.171875 4.4375 -1.765625 L 5.6875 -1.765625 C 5.519531 -1.191406 5.210938 -0.738281 4.765625 -0.40625 C 4.316406 -0.0703125 3.765625 0.09375 3.109375 0.09375 C 2.578125 0.09375 2.101562 -0.0234375 1.6875 -0.265625 C 1.28125 -0.503906 0.957031 -0.84375 0.71875 -1.28125 C 0.488281 -1.71875 0.375 -2.222656 0.375 -2.796875 Z M 0.375 -2.796875 "/></g></g></g><g fill="#7ed957" fill-opacity="1"><g transform="translate(43.501886, 211.852047)"><g><path d="M 5.875 -2.921875 C 5.875 -2.710938 5.859375 -2.523438 5.828125 -2.359375 L 1.5625 -2.359375 C 1.601562 -1.910156 1.769531 -1.550781 2.0625 -1.28125 C 2.363281 -1.007812 2.726562 -0.875 3.15625 -0.875 C 3.78125 -0.875 4.21875 -1.132812 4.46875 -1.65625 L 5.71875 -1.65625 C 5.550781 -1.144531 5.242188 -0.722656 4.796875 -0.390625 C 4.359375 -0.0664062 3.8125 0.09375 3.15625 0.09375 C 2.625 0.09375 2.144531 -0.0234375 1.71875 -0.265625 C 1.300781 -0.503906 0.972656 -0.84375 0.734375 -1.28125 C 0.492188 -1.71875 0.375 -2.222656 0.375 -2.796875 C 0.375 -3.367188 0.488281 -3.875 0.71875 -4.3125 C 0.957031 -4.75 1.285156 -5.082031 1.703125 -5.3125 C 2.128906 -5.550781 2.613281 -5.671875 3.15625 -5.671875 C 3.6875 -5.671875 4.15625 -5.554688 4.5625 -5.328125 C 4.976562 -5.097656 5.300781 -4.773438 5.53125 -4.359375 C 5.757812 -3.941406 5.875 -3.460938 5.875 -2.921875 Z M 4.671875 -3.296875 C 4.660156 -3.710938 4.503906 -4.050781 4.203125 -4.3125 C 3.910156 -4.570312 3.546875 -4.703125 3.109375 -4.703125 C 2.710938 -4.703125 2.367188 -4.570312 2.078125 -4.3125 C 1.796875 -4.0625 1.628906 -3.722656 1.578125 -3.296875 Z M 4.671875 -3.296875 "/></g></g></g><g fill="#7ed957" fill-opacity="1"><g transform="translate(49.748998, 211.852047)"><g><path d="M 2.78125 0.09375 C 2.34375 0.09375 1.945312 0.015625 1.59375 -0.140625 C 1.25 -0.304688 0.972656 -0.523438 0.765625 -0.796875 C 0.566406 -1.066406 0.460938 -1.375 0.453125 -1.71875 L 1.65625 -1.71875 C 1.675781 -1.476562 1.785156 -1.273438 1.984375 -1.109375 C 2.191406 -0.953125 2.453125 -0.875 2.765625 -0.875 C 3.085938 -0.875 3.335938 -0.9375 3.515625 -1.0625 C 3.691406 -1.1875 3.78125 -1.347656 3.78125 -1.546875 C 3.78125 -1.753906 3.679688 -1.910156 3.484375 -2.015625 C 3.285156 -2.117188 2.972656 -2.226562 2.546875 -2.34375 C 2.117188 -2.457031 1.773438 -2.566406 1.515625 -2.671875 C 1.253906 -2.785156 1.023438 -2.953125 0.828125 -3.171875 C 0.640625 -3.398438 0.546875 -3.695312 0.546875 -4.0625 C 0.546875 -4.351562 0.632812 -4.625 0.8125 -4.875 C 0.988281 -5.125 1.238281 -5.316406 1.5625 -5.453125 C 1.894531 -5.597656 2.269531 -5.671875 2.6875 -5.671875 C 3.320312 -5.671875 3.832031 -5.507812 4.21875 -5.1875 C 4.613281 -4.863281 4.820312 -4.425781 4.84375 -3.875 L 3.703125 -3.875 C 3.679688 -4.125 3.578125 -4.320312 3.390625 -4.46875 C 3.210938 -4.625 2.96875 -4.703125 2.65625 -4.703125 C 2.351562 -4.703125 2.117188 -4.644531 1.953125 -4.53125 C 1.796875 -4.414062 1.71875 -4.257812 1.71875 -4.0625 C 1.71875 -3.914062 1.769531 -3.789062 1.875 -3.6875 C 1.976562 -3.59375 2.109375 -3.515625 2.265625 -3.453125 C 2.421875 -3.398438 2.648438 -3.328125 2.953125 -3.234375 C 3.359375 -3.128906 3.691406 -3.019531 3.953125 -2.90625 C 4.210938 -2.800781 4.4375 -2.640625 4.625 -2.421875 C 4.8125 -2.203125 4.910156 -1.914062 4.921875 -1.5625 C 4.921875 -1.238281 4.832031 -0.953125 4.65625 -0.703125 C 4.476562 -0.453125 4.226562 -0.253906 3.90625 -0.109375 C 3.59375 0.0234375 3.21875 0.09375 2.78125 0.09375 Z M 2.78125 0.09375 "/></g></g></g><g fill="#7ed957" fill-opacity="1"><g transform="translate(55.155736, 211.852047)"><g/></g></g><g fill="#7ed957" fill-opacity="1"><g transform="translate(57.788232, 211.852047)"><g><path d="M 3.09375 -4.640625 L 2.0625 -4.640625 L 2.0625 0 L 0.90625 0 L 0.90625 -4.640625 L 0.25 -4.640625 L 0.25 -5.578125 L 0.90625 -5.578125 L 0.90625 -5.96875 C 0.90625 -6.613281 1.070312 -7.082031 1.40625 -7.375 C 1.75 -7.664062 2.285156 -7.8125 3.015625 -7.8125 L 3.015625 -6.859375 C 2.660156 -6.859375 2.410156 -6.789062 2.265625 -6.65625 C 2.128906 -6.519531 2.0625 -6.289062 2.0625 -5.96875 L 2.0625 -5.578125 L 3.09375 -5.578125 Z M 3.09375 -4.640625 "/></g></g></g><g fill="#7ed957" fill-opacity="1"><g transform="translate(61.149728, 211.852047)"><g><path d="M 3.171875 0.09375 C 2.648438 0.09375 2.175781 -0.0234375 1.75 -0.265625 C 1.320312 -0.503906 0.988281 -0.84375 0.75 -1.28125 C 0.507812 -1.71875 0.390625 -2.222656 0.390625 -2.796875 C 0.390625 -3.359375 0.515625 -3.859375 0.765625 -4.296875 C 1.015625 -4.742188 1.351562 -5.082031 1.78125 -5.3125 C 2.21875 -5.550781 2.703125 -5.671875 3.234375 -5.671875 C 3.765625 -5.671875 4.242188 -5.550781 4.671875 -5.3125 C 5.109375 -5.082031 5.453125 -4.742188 5.703125 -4.296875 C 5.953125 -3.859375 6.078125 -3.359375 6.078125 -2.796875 C 6.078125 -2.222656 5.945312 -1.71875 5.6875 -1.28125 C 5.4375 -0.84375 5.085938 -0.503906 4.640625 -0.265625 C 4.203125 -0.0234375 3.710938 0.09375 3.171875 0.09375 Z M 3.171875 -0.90625 C 3.472656 -0.90625 3.753906 -0.976562 4.015625 -1.125 C 4.273438 -1.269531 4.484375 -1.484375 4.640625 -1.765625 C 4.804688 -2.046875 4.890625 -2.390625 4.890625 -2.796875 C 4.890625 -3.203125 4.8125 -3.546875 4.65625 -3.828125 C 4.5 -4.109375 4.289062 -4.316406 4.03125 -4.453125 C 3.78125 -4.597656 3.503906 -4.671875 3.203125 -4.671875 C 2.910156 -4.671875 2.632812 -4.597656 2.375 -4.453125 C 2.125 -4.316406 1.925781 -4.109375 1.78125 -3.828125 C 1.632812 -3.546875 1.5625 -3.203125 1.5625 -2.796875 C 1.5625 -2.191406 1.710938 -1.722656 2.015625 -1.390625 C 2.328125 -1.066406 2.710938 -0.90625 3.171875 -0.90625 Z M 3.171875 -0.90625 "/></g></g></g><g fill="#7ed957" fill-opacity="1"><g transform="translate(67.609471, 211.852047)"><g><path d="M 1.90625 -4.765625 C 2.082031 -5.046875 2.304688 -5.265625 2.578125 -5.421875 C 2.859375 -5.585938 3.191406 -5.671875 3.578125 -5.671875 L 3.578125 -4.46875 L 3.296875 -4.46875 C 2.835938 -4.46875 2.488281 -4.351562 2.25 -4.125 C 2.019531 -3.894531 1.90625 -3.5 1.90625 -2.9375 L 1.90625 0 L 0.765625 0 L 0.765625 -5.578125 L 1.90625 -5.578125 Z M 1.90625 -4.765625 "/></g></g></g><g fill="#7ed957" fill-opacity="1"><g transform="translate(71.497463, 211.852047)"><g/></g></g><g fill="#7ed957" fill-opacity="1"><g transform="translate(74.129959, 211.852047)"><g><path d="M 1.90625 -4.765625 C 2.101562 -5.015625 2.367188 -5.226562 2.703125 -5.40625 C 3.046875 -5.582031 3.429688 -5.671875 3.859375 -5.671875 C 4.347656 -5.671875 4.789062 -5.550781 5.1875 -5.3125 C 5.59375 -5.070312 5.910156 -4.734375 6.140625 -4.296875 C 6.367188 -3.867188 6.484375 -3.375 6.484375 -2.8125 C 6.484375 -2.25 6.367188 -1.742188 6.140625 -1.296875 C 5.910156 -0.859375 5.59375 -0.515625 5.1875 -0.265625 C 4.789062 -0.0234375 4.347656 0.09375 3.859375 0.09375 C 3.429688 0.09375 3.050781 0.0078125 2.71875 -0.15625 C 2.394531 -0.332031 2.125 -0.550781 1.90625 -0.8125 L 1.90625 2.65625 L 0.765625 2.65625 L 0.765625 -5.578125 L 1.90625 -5.578125 Z M 5.3125 -2.8125 C 5.3125 -3.195312 5.226562 -3.53125 5.0625 -3.8125 C 4.90625 -4.09375 4.695312 -4.304688 4.4375 -4.453125 C 4.175781 -4.597656 3.898438 -4.671875 3.609375 -4.671875 C 3.316406 -4.671875 3.039062 -4.59375 2.78125 -4.4375 C 2.519531 -4.289062 2.304688 -4.078125 2.140625 -3.796875 C 1.984375 -3.515625 1.90625 -3.179688 1.90625 -2.796875 C 1.90625 -2.410156 1.984375 -2.070312 2.140625 -1.78125 C 2.304688 -1.5 2.519531 -1.28125 2.78125 -1.125 C 3.039062 -0.976562 3.316406 -0.90625 3.609375 -0.90625 C 3.898438 -0.90625 4.175781 -0.976562 4.4375 -1.125 C 4.695312 -1.28125 4.90625 -1.503906 5.0625 -1.796875 C 5.226562 -2.085938 5.3125 -2.425781 5.3125 -2.8125 Z M 5.3125 -2.8125 "/></g></g></g><g fill="#7ed957" fill-opacity="1"><g transform="translate(80.994697, 211.852047)"><g><path d="M 5.875 -2.921875 C 5.875 -2.710938 5.859375 -2.523438 5.828125 -2.359375 L 1.5625 -2.359375 C 1.601562 -1.910156 1.769531 -1.550781 2.0625 -1.28125 C 2.363281 -1.007812 2.726562 -0.875 3.15625 -0.875 C 3.78125 -0.875 4.21875 -1.132812 4.46875 -1.65625 L 5.71875 -1.65625 C 5.550781 -1.144531 5.242188 -0.722656 4.796875 -0.390625 C 4.359375 -0.0664062 3.8125 0.09375 3.15625 0.09375 C 2.625 0.09375 2.144531 -0.0234375 1.71875 -0.265625 C 1.300781 -0.503906 0.972656 -0.84375 0.734375 -1.28125 C 0.492188 -1.71875 0.375 -2.222656 0.375 -2.796875 C 0.375 -3.367188 0.488281 -3.875 0.71875 -4.3125 C 0.957031 -4.75 1.285156 -5.082031 1.703125 -5.3125 C 2.128906 -5.550781 2.613281 -5.671875 3.15625 -5.671875 C 3.6875 -5.671875 4.15625 -5.554688 4.5625 -5.328125 C 4.976562 -5.097656 5.300781 -4.773438 5.53125 -4.359375 C 5.757812 -3.941406 5.875 -3.460938 5.875 -2.921875 Z M 4.671875 -3.296875 C 4.660156 -3.710938 4.503906 -4.050781 4.203125 -4.3125 C 3.910156 -4.570312 3.546875 -4.703125 3.109375 -4.703125 C 2.710938 -4.703125 2.367188 -4.570312 2.078125 -4.3125 C 1.796875 -4.0625 1.628906 -3.722656 1.578125 -3.296875 Z M 4.671875 -3.296875 "/></g></g></g><g fill="#7ed957" fill-opacity="1"><g transform="translate(87.241809, 211.852047)"><g><path d="M 3.171875 0.09375 C 2.648438 0.09375 2.175781 -0.0234375 1.75 -0.265625 C 1.320312 -0.503906 0.988281 -0.84375 0.75 -1.28125 C 0.507812 -1.71875 0.390625 -2.222656 0.390625 -2.796875 C 0.390625 -3.359375 0.515625 -3.859375 0.765625 -4.296875 C 1.015625 -4.742188 1.351562 -5.082031 1.78125 -5.3125 C 2.21875 -5.550781 2.703125 -5.671875 3.234375 -5.671875 C 3.765625 -5.671875 4.242188 -5.550781 4.671875 -5.3125 C 5.109375 -5.082031 5.453125 -4.742188 5.703125 -4.296875 C 5.953125 -3.859375 6.078125 -3.359375 6.078125 -2.796875 C 6.078125 -2.222656 5.945312 -1.71875 5.6875 -1.28125 C 5.4375 -0.84375 5.085938 -0.503906 4.640625 -0.265625 C 4.203125 -0.0234375 3.710938 0.09375 3.171875 0.09375 Z M 3.171875 -0.90625 C 3.472656 -0.90625 3.753906 -0.976562 4.015625 -1.125 C 4.273438 -1.269531 4.484375 -1.484375 4.640625 -1.765625 C 4.804688 -2.046875 4.890625 -2.390625 4.890625 -2.796875 C 4.890625 -3.203125 4.8125 -3.546875 4.65625 -3.828125 C 4.5 -4.109375 4.289062 -4.316406 4.03125 -4.453125 C 3.78125 -4.597656 3.503906 -4.671875 3.203125 -4.671875 C 2.910156 -4.671875 2.632812 -4.597656 2.375 -4.453125 C 2.125 -4.316406 1.925781 -4.109375 1.78125 -3.828125 C 1.632812 -3.546875 1.5625 -3.203125 1.5625 -2.796875 C 1.5625 -2.191406 1.710938 -1.722656 2.015625 -1.390625 C 2.328125 -1.066406 2.710938 -0.90625 3.171875 -0.90625 Z M 3.171875 -0.90625 "/></g></g></g><g fill="#7ed957" fill-opacity="1"><g transform="translate(93.701552, 211.852047)"><g><path d="M 1.90625 -4.765625 C 2.101562 -5.015625 2.367188 -5.226562 2.703125 -5.40625 C 3.046875 -5.582031 3.429688 -5.671875 3.859375 -5.671875 C 4.347656 -5.671875 4.789062 -5.550781 5.1875 -5.3125 C 5.59375 -5.070312 5.910156 -4.734375 6.140625 -4.296875 C 6.367188 -3.867188 6.484375 -3.375 6.484375 -2.8125 C 6.484375 -2.25 6.367188 -1.742188 6.140625 -1.296875 C 5.910156 -0.859375 5.59375 -0.515625 5.1875 -0.265625 C 4.789062 -0.0234375 4.347656 0.09375 3.859375 0.09375 C 3.429688 0.09375 3.050781 0.0078125 2.71875 -0.15625 C 2.394531 -0.332031 2.125 -0.550781 1.90625 -0.8125 L 1.90625 2.65625 L 0.765625 2.65625 L 0.765625 -5.578125 L 1.90625 -5.578125 Z M 5.3125 -2.8125 C 5.3125 -3.195312 5.226562 -3.53125 5.0625 -3.8125 C 4.90625 -4.09375 4.695312 -4.304688 4.4375 -4.453125 C 4.175781 -4.597656 3.898438 -4.671875 3.609375 -4.671875 C 3.316406 -4.671875 3.039062 -4.59375 2.78125 -4.4375 C 2.519531 -4.289062 2.304688 -4.078125 2.140625 -3.796875 C 1.984375 -3.515625 1.90625 -3.179688 1.90625 -2.796875 C 1.90625 -2.410156 1.984375 -2.070312 2.140625 -1.78125 C 2.304688 -1.5 2.519531 -1.28125 2.78125 -1.125 C 3.039062 -0.976562 3.316406 -0.90625 3.609375 -0.90625 C 3.898438 -0.90625 4.175781 -0.976562 4.4375 -1.125 C 4.695312 -1.28125 4.90625 -1.503906 5.0625 -1.796875 C 5.226562 -2.085938 5.3125 -2.425781 5.3125 -2.8125 Z M 5.3125 -2.8125 "/></g></g></g><g fill="#7ed957" fill-opacity="1"><g transform="translate(100.56629, 211.852047)"><g><path d="M 1.90625 -7.5 L 1.90625 0 L 0.765625 0 L 0.765625 -7.5 Z M 1.90625 -7.5 "/></g></g></g><g fill="#7ed957" fill-opacity="1"><g transform="translate(103.239286, 211.852047)"><g><path d="M 5.875 -2.921875 C 5.875 -2.710938 5.859375 -2.523438 5.828125 -2.359375 L 1.5625 -2.359375 C 1.601562 -1.910156 1.769531 -1.550781 2.0625 -1.28125 C 2.363281 -1.007812 2.726562 -0.875 3.15625 -0.875 C 3.78125 -0.875 4.21875 -1.132812 4.46875 -1.65625 L 5.71875 -1.65625 C 5.550781 -1.144531 5.242188 -0.722656 4.796875 -0.390625 C 4.359375 -0.0664062 3.8125 0.09375 3.15625 0.09375 C 2.625 0.09375 2.144531 -0.0234375 1.71875 -0.265625 C 1.300781 -0.503906 0.972656 -0.84375 0.734375 -1.28125 C 0.492188 -1.71875 0.375 -2.222656 0.375 -2.796875 C 0.375 -3.367188 0.488281 -3.875 0.71875 -4.3125 C 0.957031 -4.75 1.285156 -5.082031 1.703125 -5.3125 C 2.128906 -5.550781 2.613281 -5.671875 3.15625 -5.671875 C 3.6875 -5.671875 4.15625 -5.554688 4.5625 -5.328125 C 4.976562 -5.097656 5.300781 -4.773438 5.53125 -4.359375 C 5.757812 -3.941406 5.875 -3.460938 5.875 -2.921875 Z M 4.671875 -3.296875 C 4.660156 -3.710938 4.503906 -4.050781 4.203125 -4.3125 C 3.910156 -4.570312 3.546875 -4.703125 3.109375 -4.703125 C 2.710938 -4.703125 2.367188 -4.570312 2.078125 -4.3125 C 1.796875 -4.0625 1.628906 -3.722656 1.578125 -3.296875 Z M 4.671875 -3.296875 "/></g></g></g><g fill="#7ed957" fill-opacity="1"><g transform="translate(109.486398, 211.852047)"><g/></g></g><g fill="#7ed957" fill-opacity="1"><g transform="translate(112.118894, 211.852047)"><g><path d="M 2.109375 -4.640625 L 2.109375 -1.546875 C 2.109375 -1.335938 2.15625 -1.1875 2.25 -1.09375 C 2.351562 -1.007812 2.519531 -0.96875 2.75 -0.96875 L 3.46875 -0.96875 L 3.46875 0 L 2.546875 0 C 2.023438 0 1.625 -0.117188 1.34375 -0.359375 C 1.070312 -0.609375 0.9375 -1.003906 0.9375 -1.546875 L 0.9375 -4.640625 L 0.28125 -4.640625 L 0.28125 -5.578125 L 0.9375 -5.578125 L 0.9375 -6.96875 L 2.109375 -6.96875 L 2.109375 -5.578125 L 3.46875 -5.578125 L 3.46875 -4.640625 Z M 2.109375 -4.640625 "/></g></g></g><g fill="#7ed957" fill-opacity="1"><g transform="translate(115.885384, 211.852047)"><g><path d="M 3.640625 -5.671875 C 4.066406 -5.671875 4.445312 -5.578125 4.78125 -5.390625 C 5.113281 -5.210938 5.375 -4.941406 5.5625 -4.578125 C 5.757812 -4.222656 5.859375 -3.796875 5.859375 -3.296875 L 5.859375 0 L 4.71875 0 L 4.71875 -3.125 C 4.71875 -3.625 4.59375 -4.003906 4.34375 -4.265625 C 4.09375 -4.535156 3.753906 -4.671875 3.328125 -4.671875 C 2.890625 -4.671875 2.539062 -4.535156 2.28125 -4.265625 C 2.03125 -4.003906 1.90625 -3.625 1.90625 -3.125 L 1.90625 0 L 0.765625 0 L 0.765625 -7.5 L 1.90625 -7.5 L 1.90625 -4.9375 C 2.101562 -5.164062 2.351562 -5.34375 2.65625 -5.46875 C 2.957031 -5.601562 3.285156 -5.671875 3.640625 -5.671875 Z M 3.640625 -5.671875 "/></g></g></g><g fill="#7ed957" fill-opacity="1"><g transform="translate(122.456501, 211.852047)"><g><path d="M 0.375 -2.8125 C 0.375 -3.375 0.488281 -3.867188 0.71875 -4.296875 C 0.957031 -4.734375 1.273438 -5.070312 1.671875 -5.3125 C 2.078125 -5.550781 2.519531 -5.671875 3 -5.671875 C 3.445312 -5.671875 3.832031 -5.582031 4.15625 -5.40625 C 4.476562 -5.238281 4.738281 -5.023438 4.9375 -4.765625 L 4.9375 -5.578125 L 6.109375 -5.578125 L 6.109375 0 L 4.9375 0 L 4.9375 -0.828125 C 4.738281 -0.566406 4.472656 -0.347656 4.140625 -0.171875 C 3.804688 0.00390625 3.421875 0.09375 2.984375 0.09375 C 2.503906 0.09375 2.066406 -0.0234375 1.671875 -0.265625 C 1.273438 -0.515625 0.957031 -0.859375 0.71875 -1.296875 C 0.488281 -1.742188 0.375 -2.25 0.375 -2.8125 Z M 4.9375 -2.796875 C 4.9375 -3.179688 4.859375 -3.515625 4.703125 -3.796875 C 4.546875 -4.078125 4.335938 -4.289062 4.078125 -4.4375 C 3.828125 -4.59375 3.550781 -4.671875 3.25 -4.671875 C 2.945312 -4.671875 2.664062 -4.597656 2.40625 -4.453125 C 2.15625 -4.304688 1.953125 -4.09375 1.796875 -3.8125 C 1.640625 -3.53125 1.5625 -3.195312 1.5625 -2.8125 C 1.5625 -2.425781 1.640625 -2.085938 1.796875 -1.796875 C 1.953125 -1.503906 2.160156 -1.28125 2.421875 -1.125 C 2.679688 -0.976562 2.957031 -0.90625 3.25 -0.90625 C 3.550781 -0.90625 3.828125 -0.976562 4.078125 -1.125 C 4.335938 -1.28125 4.546875 -1.5 4.703125 -1.78125 C 4.859375 -2.070312 4.9375 -2.410156 4.9375 -2.796875 Z M 4.9375 -2.796875 "/></g></g></g><g fill="#7ed957" fill-opacity="1"><g transform="translate(129.321239, 211.852047)"><g><path d="M 2.109375 -4.640625 L 2.109375 -1.546875 C 2.109375 -1.335938 2.15625 -1.1875 2.25 -1.09375 C 2.351562 -1.007812 2.519531 -0.96875 2.75 -0.96875 L 3.46875 -0.96875 L 3.46875 0 L 2.546875 0 C 2.023438 0 1.625 -0.117188 1.34375 -0.359375 C 1.070312 -0.609375 0.9375 -1.003906 0.9375 -1.546875 L 0.9375 -4.640625 L 0.28125 -4.640625 L 0.28125 -5.578125 L 0.9375 -5.578125 L 0.9375 -6.96875 L 2.109375 -6.96875 L 2.109375 -5.578125 L 3.46875 -5.578125 L 3.46875 -4.640625 Z M 2.109375 -4.640625 "/></g></g></g><g fill="#7ed957" fill-opacity="1"><g transform="translate(133.08773, 211.852047)"><g/></g></g><g fill="#7ed957" fill-opacity="1"><g transform="translate(135.720226, 211.852047)"><g><path d="M 0.375 -2.796875 C 0.375 -3.367188 0.488281 -3.875 0.71875 -4.3125 C 0.957031 -4.75 1.28125 -5.082031 1.6875 -5.3125 C 2.101562 -5.550781 2.578125 -5.671875 3.109375 -5.671875 C 3.785156 -5.671875 4.34375 -5.507812 4.78125 -5.1875 C 5.226562 -4.863281 5.53125 -4.40625 5.6875 -3.8125 L 4.4375 -3.8125 C 4.332031 -4.09375 4.164062 -4.3125 3.9375 -4.46875 C 3.71875 -4.625 3.441406 -4.703125 3.109375 -4.703125 C 2.640625 -4.703125 2.265625 -4.535156 1.984375 -4.203125 C 1.703125 -3.867188 1.5625 -3.398438 1.5625 -2.796875 C 1.5625 -2.191406 1.703125 -1.71875 1.984375 -1.375 C 2.265625 -1.039062 2.640625 -0.875 3.109375 -0.875 C 3.773438 -0.875 4.21875 -1.171875 4.4375 -1.765625 L 5.6875 -1.765625 C 5.519531 -1.191406 5.210938 -0.738281 4.765625 -0.40625 C 4.316406 -0.0703125 3.765625 0.09375 3.109375 0.09375 C 2.578125 0.09375 2.101562 -0.0234375 1.6875 -0.265625 C 1.28125 -0.503906 0.957031 -0.84375 0.71875 -1.28125 C 0.488281 -1.71875 0.375 -2.222656 0.375 -2.796875 Z M 0.375 -2.796875 "/></g></g></g><g fill="#7ed957" fill-opacity="1"><g transform="translate(141.795218, 211.852047)"><g><path d="M 0.375 -2.8125 C 0.375 -3.375 0.488281 -3.867188 0.71875 -4.296875 C 0.957031 -4.734375 1.273438 -5.070312 1.671875 -5.3125 C 2.078125 -5.550781 2.519531 -5.671875 3 -5.671875 C 3.445312 -5.671875 3.832031 -5.582031 4.15625 -5.40625 C 4.476562 -5.238281 4.738281 -5.023438 4.9375 -4.765625 L 4.9375 -5.578125 L 6.109375 -5.578125 L 6.109375 0 L 4.9375 0 L 4.9375 -0.828125 C 4.738281 -0.566406 4.472656 -0.347656 4.140625 -0.171875 C 3.804688 0.00390625 3.421875 0.09375 2.984375 0.09375 C 2.503906 0.09375 2.066406 -0.0234375 1.671875 -0.265625 C 1.273438 -0.515625 0.957031 -0.859375 0.71875 -1.296875 C 0.488281 -1.742188 0.375 -2.25 0.375 -2.8125 Z M 4.9375 -2.796875 C 4.9375 -3.179688 4.859375 -3.515625 4.703125 -3.796875 C 4.546875 -4.078125 4.335938 -4.289062 4.078125 -4.4375 C 3.828125 -4.59375 3.550781 -4.671875 3.25 -4.671875 C 2.945312 -4.671875 2.664062 -4.597656 2.40625 -4.453125 C 2.15625 -4.304688 1.953125 -4.09375 1.796875 -3.8125 C 1.640625 -3.53125 1.5625 -3.195312 1.5625 -2.8125 C 1.5625 -2.425781 1.640625 -2.085938 1.796875 -1.796875 C 1.953125 -1.503906 2.160156 -1.28125 2.421875 -1.125 C 2.679688 -0.976562 2.957031 -0.90625 3.25 -0.90625 C 3.550781 -0.90625 3.828125 -0.976562 4.078125 -1.125 C 4.335938 -1.28125 4.546875 -1.5 4.703125 -1.78125 C 4.859375 -2.070312 4.9375 -2.410156 4.9375 -2.796875 Z M 4.9375 -2.796875 "/></g></g></g><g fill="#7ed957" fill-opacity="1"><g transform="translate(148.659956, 211.852047)"><g><path d="M 1.90625 -4.765625 C 2.082031 -5.046875 2.304688 -5.265625 2.578125 -5.421875 C 2.859375 -5.585938 3.191406 -5.671875 3.578125 -5.671875 L 3.578125 -4.46875 L 3.296875 -4.46875 C 2.835938 -4.46875 2.488281 -4.351562 2.25 -4.125 C 2.019531 -3.894531 1.90625 -3.5 1.90625 -2.9375 L 1.90625 0 L 0.765625 0 L 0.765625 -5.578125 L 1.90625 -5.578125 Z M 1.90625 -4.765625 "/></g></g></g><g fill="#7ed957" fill-opacity="1"><g transform="translate(152.547949, 211.852047)"><g><path d="M 5.875 -2.921875 C 5.875 -2.710938 5.859375 -2.523438 5.828125 -2.359375 L 1.5625 -2.359375 C 1.601562 -1.910156 1.769531 -1.550781 2.0625 -1.28125 C 2.363281 -1.007812 2.726562 -0.875 3.15625 -0.875 C 3.78125 -0.875 4.21875 -1.132812 4.46875 -1.65625 L 5.71875 -1.65625 C 5.550781 -1.144531 5.242188 -0.722656 4.796875 -0.390625 C 4.359375 -0.0664062 3.8125 0.09375 3.15625 0.09375 C 2.625 0.09375 2.144531 -0.0234375 1.71875 -0.265625 C 1.300781 -0.503906 0.972656 -0.84375 0.734375 -1.28125 C 0.492188 -1.71875 0.375 -2.222656 0.375 -2.796875 C 0.375 -3.367188 0.488281 -3.875 0.71875 -4.3125 C 0.957031 -4.75 1.285156 -5.082031 1.703125 -5.3125 C 2.128906 -5.550781 2.613281 -5.671875 3.15625 -5.671875 C 3.6875 -5.671875 4.15625 -5.554688 4.5625 -5.328125 C 4.976562 -5.097656 5.300781 -4.773438 5.53125 -4.359375 C 5.757812 -3.941406 5.875 -3.460938 5.875 -2.921875 Z M 4.671875 -3.296875 C 4.660156 -3.710938 4.503906 -4.050781 4.203125 -4.3125 C 3.910156 -4.570312 3.546875 -4.703125 3.109375 -4.703125 C 2.710938 -4.703125 2.367188 -4.570312 2.078125 -4.3125 C 1.796875 -4.0625 1.628906 -3.722656 1.578125 -3.296875 Z M 4.671875 -3.296875 "/></g></g></g><g fill="#7ed957" fill-opacity="1"><g transform="translate(158.795061, 211.852047)"><g/></g></g><g fill="#7ed957" fill-opacity="1"><g transform="translate(161.427557, 211.852047)"><g><path d="M 3.09375 -4.640625 L 2.0625 -4.640625 L 2.0625 0 L 0.90625 0 L 0.90625 -4.640625 L 0.25 -4.640625 L 0.25 -5.578125 L 0.90625 -5.578125 L 0.90625 -5.96875 C 0.90625 -6.613281 1.070312 -7.082031 1.40625 -7.375 C 1.75 -7.664062 2.285156 -7.8125 3.015625 -7.8125 L 3.015625 -6.859375 C 2.660156 -6.859375 2.410156 -6.789062 2.265625 -6.65625 C 2.128906 -6.519531 2.0625 -6.289062 2.0625 -5.96875 L 2.0625 -5.578125 L 3.09375 -5.578125 Z M 3.09375 -4.640625 "/></g></g></g><g fill="#7ed957" fill-opacity="1"><g transform="translate(164.789052, 211.852047)"><g><path d="M 3.171875 0.09375 C 2.648438 0.09375 2.175781 -0.0234375 1.75 -0.265625 C 1.320312 -0.503906 0.988281 -0.84375 0.75 -1.28125 C 0.507812 -1.71875 0.390625 -2.222656 0.390625 -2.796875 C 0.390625 -3.359375 0.515625 -3.859375 0.765625 -4.296875 C 1.015625 -4.742188 1.351562 -5.082031 1.78125 -5.3125 C 2.21875 -5.550781 2.703125 -5.671875 3.234375 -5.671875 C 3.765625 -5.671875 4.242188 -5.550781 4.671875 -5.3125 C 5.109375 -5.082031 5.453125 -4.742188 5.703125 -4.296875 C 5.953125 -3.859375 6.078125 -3.359375 6.078125 -2.796875 C 6.078125 -2.222656 5.945312 -1.71875 5.6875 -1.28125 C 5.4375 -0.84375 5.085938 -0.503906 4.640625 -0.265625 C 4.203125 -0.0234375 3.710938 0.09375 3.171875 0.09375 Z M 3.171875 -0.90625 C 3.472656 -0.90625 3.753906 -0.976562 4.015625 -1.125 C 4.273438 -1.269531 4.484375 -1.484375 4.640625 -1.765625 C 4.804688 -2.046875 4.890625 -2.390625 4.890625 -2.796875 C 4.890625 -3.203125 4.8125 -3.546875 4.65625 -3.828125 C 4.5 -4.109375 4.289062 -4.316406 4.03125 -4.453125 C 3.78125 -4.597656 3.503906 -4.671875 3.203125 -4.671875 C 2.910156 -4.671875 2.632812 -4.597656 2.375 -4.453125 C 2.125 -4.316406 1.925781 -4.109375 1.78125 -3.828125 C 1.632812 -3.546875 1.5625 -3.203125 1.5625 -2.796875 C 1.5625 -2.191406 1.710938 -1.722656 2.015625 -1.390625 C 2.328125 -1.066406 2.710938 -0.90625 3.171875 -0.90625 Z M 3.171875 -0.90625 "/></g></g></g><g fill="#7ed957" fill-opacity="1"><g transform="translate(171.248795, 211.852047)"><g><path d="M 1.90625 -4.765625 C 2.082031 -5.046875 2.304688 -5.265625 2.578125 -5.421875 C 2.859375 -5.585938 3.191406 -5.671875 3.578125 -5.671875 L 3.578125 -4.46875 L 3.296875 -4.46875 C 2.835938 -4.46875 2.488281 -4.351562 2.25 -4.125 C 2.019531 -3.894531 1.90625 -3.5 1.90625 -2.9375 L 1.90625 0 L 0.765625 0 L 0.765625 -5.578125 L 1.90625 -5.578125 Z M 1.90625 -4.765625 "/></g></g></g><g fill="#7ed957" fill-opacity="1"><g transform="translate(175.136788, 211.852047)"><g/></g></g><g fill="#7ed957" fill-opacity="1"><g transform="translate(177.769284, 211.852047)"><g><path d="M 2.109375 -4.640625 L 2.109375 -1.546875 C 2.109375 -1.335938 2.15625 -1.1875 2.25 -1.09375 C 2.351562 -1.007812 2.519531 -0.96875 2.75 -0.96875 L 3.46875 -0.96875 L 3.46875 0 L 2.546875 0 C 2.023438 0 1.625 -0.117188 1.34375 -0.359375 C 1.070312 -0.609375 0.9375 -1.003906 0.9375 -1.546875 L 0.9375 -4.640625 L 0.28125 -4.640625 L 0.28125 -5.578125 L 0.9375 -5.578125 L 0.9375 -6.96875 L 2.109375 -6.96875 L 2.109375 -5.578125 L 3.46875 -5.578125 L 3.46875 -4.640625 Z M 2.109375 -4.640625 "/></g></g></g><g fill="#7ed957" fill-opacity="1"><g transform="translate(181.535774, 211.852047)"><g><path d="M 3.640625 -5.671875 C 4.066406 -5.671875 4.445312 -5.578125 4.78125 -5.390625 C 5.113281 -5.210938 5.375 -4.941406 5.5625 -4.578125 C 5.757812 -4.222656 5.859375 -3.796875 5.859375 -3.296875 L 5.859375 0 L 4.71875 0 L 4.71875 -3.125 C 4.71875 -3.625 4.59375 -4.003906 4.34375 -4.265625 C 4.09375 -4.535156 3.753906 -4.671875 3.328125 -4.671875 C 2.890625 -4.671875 2.539062 -4.535156 2.28125 -4.265625 C 2.03125 -4.003906 1.90625 -3.625 1.90625 -3.125 L 1.90625 0 L 0.765625 0 L 0.765625 -7.5 L 1.90625 -7.5 L 1.90625 -4.9375 C 2.101562 -5.164062 2.351562 -5.34375 2.65625 -5.46875 C 2.957031 -5.601562 3.285156 -5.671875 3.640625 -5.671875 Z M 3.640625 -5.671875 "/></g></g></g><g fill="#7ed957" fill-opacity="1"><g transform="translate(188.106891, 211.852047)"><g><path d="M 5.875 -2.921875 C 5.875 -2.710938 5.859375 -2.523438 5.828125 -2.359375 L 1.5625 -2.359375 C 1.601562 -1.910156 1.769531 -1.550781 2.0625 -1.28125 C 2.363281 -1.007812 2.726562 -0.875 3.15625 -0.875 C 3.78125 -0.875 4.21875 -1.132812 4.46875 -1.65625 L 5.71875 -1.65625 C 5.550781 -1.144531 5.242188 -0.722656 4.796875 -0.390625 C 4.359375 -0.0664062 3.8125 0.09375 3.15625 0.09375 C 2.625 0.09375 2.144531 -0.0234375 1.71875 -0.265625 C 1.300781 -0.503906 0.972656 -0.84375 0.734375 -1.28125 C 0.492188 -1.71875 0.375 -2.222656 0.375 -2.796875 C 0.375 -3.367188 0.488281 -3.875 0.71875 -4.3125 C 0.957031 -4.75 1.285156 -5.082031 1.703125 -5.3125 C 2.128906 -5.550781 2.613281 -5.671875 3.15625 -5.671875 C 3.6875 -5.671875 4.15625 -5.554688 4.5625 -5.328125 C 4.976562 -5.097656 5.300781 -4.773438 5.53125 -4.359375 C 5.757812 -3.941406 5.875 -3.460938 5.875 -2.921875 Z M 4.671875 -3.296875 C 4.660156 -3.710938 4.503906 -4.050781 4.203125 -4.3125 C 3.910156 -4.570312 3.546875 -4.703125 3.109375 -4.703125 C 2.710938 -4.703125 2.367188 -4.570312 2.078125 -4.3125 C 1.796875 -4.0625 1.628906 -3.722656 1.578125 -3.296875 Z M 4.671875 -3.296875 "/></g></g></g><g fill="#7ed957" fill-opacity="1"><g transform="translate(194.354003, 211.852047)"><g><path d="M 1.34375 -6.3125 C 1.132812 -6.3125 0.957031 -6.382812 0.8125 -6.53125 C 0.675781 -6.675781 0.609375 -6.851562 0.609375 -7.0625 C 0.609375 -7.269531 0.675781 -7.441406 0.8125 -7.578125 C 0.957031 -7.722656 1.132812 -7.796875 1.34375 -7.796875 C 1.550781 -7.796875 1.722656 -7.722656 1.859375 -7.578125 C 2.003906 -7.441406 2.078125 -7.269531 2.078125 -7.0625 C 2.078125 -6.851562 2.003906 -6.675781 1.859375 -6.53125 C 1.722656 -6.382812 1.550781 -6.3125 1.34375 -6.3125 Z M 1.90625 -5.578125 L 1.90625 0 L 0.765625 0 L 0.765625 -5.578125 Z M 1.90625 -5.578125 "/></g></g></g><g fill="#7ed957" fill-opacity="1"><g transform="translate(197.027, 211.852047)"><g><path d="M 1.90625 -4.765625 C 2.082031 -5.046875 2.304688 -5.265625 2.578125 -5.421875 C 2.859375 -5.585938 3.191406 -5.671875 3.578125 -5.671875 L 3.578125 -4.46875 L 3.296875 -4.46875 C 2.835938 -4.46875 2.488281 -4.351562 2.25 -4.125 C 2.019531 -3.894531 1.90625 -3.5 1.90625 -2.9375 L 1.90625 0 L 0.765625 0 L 0.765625 -5.578125 L 1.90625 -5.578125 Z M 1.90625 -4.765625 "/></g></g></g><g fill="#7ed957" fill-opacity="1"><g transform="translate(200.914992, 211.852047)"><g/></g></g><g fill="#7ed957" fill-opacity="1"><g transform="translate(203.547488, 211.852047)"><g><path d="M 3.640625 -5.671875 C 4.066406 -5.671875 4.445312 -5.578125 4.78125 -5.390625 C 5.113281 -5.210938 5.375 -4.941406 5.5625 -4.578125 C 5.757812 -4.222656 5.859375 -3.796875 5.859375 -3.296875 L 5.859375 0 L 4.71875 0 L 4.71875 -3.125 C 4.71875 -3.625 4.59375 -4.003906 4.34375 -4.265625 C 4.09375 -4.535156 3.753906 -4.671875 3.328125 -4.671875 C 2.890625 -4.671875 2.539062 -4.535156 2.28125 -4.265625 C 2.03125 -4.003906 1.90625 -3.625 1.90625 -3.125 L 1.90625 0 L 0.765625 0 L 0.765625 -7.5 L 1.90625 -7.5 L 1.90625 -4.9375 C 2.101562 -5.164062 2.351562 -5.34375 2.65625 -5.46875 C 2.957031 -5.601562 3.285156 -5.671875 3.640625 -5.671875 Z M 3.640625 -5.671875 "/></g></g></g><g fill="#7ed957" fill-opacity="1"><g transform="translate(210.118605, 211.852047)"><g><path d="M 5.875 -2.921875 C 5.875 -2.710938 5.859375 -2.523438 5.828125 -2.359375 L 1.5625 -2.359375 C 1.601562 -1.910156 1.769531 -1.550781 2.0625 -1.28125 C 2.363281 -1.007812 2.726562 -0.875 3.15625 -0.875 C 3.78125 -0.875 4.21875 -1.132812 4.46875 -1.65625 L 5.71875 -1.65625 C 5.550781 -1.144531 5.242188 -0.722656 4.796875 -0.390625 C 4.359375 -0.0664062 3.8125 0.09375 3.15625 0.09375 C 2.625 0.09375 2.144531 -0.0234375 1.71875 -0.265625 C 1.300781 -0.503906 0.972656 -0.84375 0.734375 -1.28125 C 0.492188 -1.71875 0.375 -2.222656 0.375 -2.796875 C 0.375 -3.367188 0.488281 -3.875 0.71875 -4.3125 C 0.957031 -4.75 1.285156 -5.082031 1.703125 -5.3125 C 2.128906 -5.550781 2.613281 -5.671875 3.15625 -5.671875 C 3.6875 -5.671875 4.15625 -5.554688 4.5625 -5.328125 C 4.976562 -5.097656 5.300781 -4.773438 5.53125 -4.359375 C 5.757812 -3.941406 5.875 -3.460938 5.875 -2.921875 Z M 4.671875 -3.296875 C 4.660156 -3.710938 4.503906 -4.050781 4.203125 -4.3125 C 3.910156 -4.570312 3.546875 -4.703125 3.109375 -4.703125 C 2.710938 -4.703125 2.367188 -4.570312 2.078125 -4.3125 C 1.796875 -4.0625 1.628906 -3.722656 1.578125 -3.296875 Z M 4.671875 -3.296875 "/></g></g></g><g fill="#7ed957" fill-opacity="1"><g transform="translate(216.365717, 211.852047)"><g><path d="M 0.375 -2.8125 C 0.375 -3.375 0.488281 -3.867188 0.71875 -4.296875 C 0.957031 -4.734375 1.273438 -5.070312 1.671875 -5.3125 C 2.078125 -5.550781 2.519531 -5.671875 3 -5.671875 C 3.445312 -5.671875 3.832031 -5.582031 4.15625 -5.40625 C 4.476562 -5.238281 4.738281 -5.023438 4.9375 -4.765625 L 4.9375 -5.578125 L 6.109375 -5.578125 L 6.109375 0 L 4.9375 0 L 4.9375 -0.828125 C 4.738281 -0.566406 4.472656 -0.347656 4.140625 -0.171875 C 3.804688 0.00390625 3.421875 0.09375 2.984375 0.09375 C 2.503906 0.09375 2.066406 -0.0234375 1.671875 -0.265625 C 1.273438 -0.515625 0.957031 -0.859375 0.71875 -1.296875 C 0.488281 -1.742188 0.375 -2.25 0.375 -2.8125 Z M 4.9375 -2.796875 C 4.9375 -3.179688 4.859375 -3.515625 4.703125 -3.796875 C 4.546875 -4.078125 4.335938 -4.289062 4.078125 -4.4375 C 3.828125 -4.59375 3.550781 -4.671875 3.25 -4.671875 C 2.945312 -4.671875 2.664062 -4.597656 2.40625 -4.453125 C 2.15625 -4.304688 1.953125 -4.09375 1.796875 -3.8125 C 1.640625 -3.53125 1.5625 -3.195312 1.5625 -2.8125 C 1.5625 -2.425781 1.640625 -2.085938 1.796875 -1.796875 C 1.953125 -1.503906 2.160156 -1.28125 2.421875 -1.125 C 2.679688 -0.976562 2.957031 -0.90625 3.25 -0.90625 C 3.550781 -0.90625 3.828125 -0.976562 4.078125 -1.125 C 4.335938 -1.28125 4.546875 -1.5 4.703125 -1.78125 C 4.859375 -2.070312 4.9375 -2.410156 4.9375 -2.796875 Z M 4.9375 -2.796875 "/></g></g></g><g fill="#7ed957" fill-opacity="1"><g transform="translate(223.230455, 211.852047)"><g><path d="M 1.90625 -7.5 L 1.90625 0 L 0.765625 0 L 0.765625 -7.5 Z M 1.90625 -7.5 "/></g></g></g><g fill="#7ed957" fill-opacity="1"><g transform="translate(225.903451, 211.852047)"><g><path d="M 2.109375 -4.640625 L 2.109375 -1.546875 C 2.109375 -1.335938 2.15625 -1.1875 2.25 -1.09375 C 2.351562 -1.007812 2.519531 -0.96875 2.75 -0.96875 L 3.46875 -0.96875 L 3.46875 0 L 2.546875 0 C 2.023438 0 1.625 -0.117188 1.34375 -0.359375 C 1.070312 -0.609375 0.9375 -1.003906 0.9375 -1.546875 L 0.9375 -4.640625 L 0.28125 -4.640625 L 0.28125 -5.578125 L 0.9375 -5.578125 L 0.9375 -6.96875 L 2.109375 -6.96875 L 2.109375 -5.578125 L 3.46875 -5.578125 L 3.46875 -4.640625 Z M 2.109375 -4.640625 "/></g></g></g><g fill="#7ed957" fill-opacity="1"><g transform="translate(229.669953, 211.852047)"><g><path d="M 3.640625 -5.671875 C 4.066406 -5.671875 4.445312 -5.578125 4.78125 -5.390625 C 5.113281 -5.210938 5.375 -4.941406 5.5625 -4.578125 C 5.757812 -4.222656 5.859375 -3.796875 5.859375 -3.296875 L 5.859375 0 L 4.71875 0 L 4.71875 -3.125 C 4.71875 -3.625 4.59375 -4.003906 4.34375 -4.265625 C 4.09375 -4.535156 3.753906 -4.671875 3.328125 -4.671875 C 2.890625 -4.671875 2.539062 -4.535156 2.28125 -4.265625 C 2.03125 -4.003906 1.90625 -3.625 1.90625 -3.125 L 1.90625 0 L 0.765625 0 L 0.765625 -7.5 L 1.90625 -7.5 L 1.90625 -4.9375 C 2.101562 -5.164062 2.351562 -5.34375 2.65625 -5.46875 C 2.957031 -5.601562 3.285156 -5.671875 3.640625 -5.671875 Z M 3.640625 -5.671875 "/></g></g></g><path stroke-linecap="butt" transform="matrix(0.749554, 0, 0, 0.75, 286.390913, 148.141161)" fill="none" stroke-linejoin="miter" d="M -0.000384087 2.999285 L 105.072542 2.999285 " stroke="#f3da38" stroke-width="6" stroke-opacity="1" stroke-miterlimit="4"/><path stroke-linecap="butt" transform="matrix(0.749554, 0, 0, 0.75, 207.588168, 148.141161)" fill="none" stroke-linejoin="miter" d="M 0.00223504 2.999285 L 105.06995 2.999285 " stroke="#f3da38" stroke-width="6" stroke-opacity="1" stroke-miterlimit="4"/><path stroke-linecap="butt" transform="matrix(0.749554, 0, 0, 0.75, 286.390913, 148.141161)" fill="none" stroke-linejoin="miter" d="M -0.000384087 2.999285 L 105.072542 2.999285 " stroke="#f3da38" stroke-width="6" stroke-opacity="1" stroke-miterlimit="4"/><path stroke-linecap="butt" transform="matrix(0.749554, 0, 0, 0.75, 147.918964, 148.141161)" fill="none" stroke-linejoin="miter" d="M -0.00132831 2.999285 L 105.071598 2.999285 " stroke="#f3da38" stroke-width="6" stroke-opacity="1" stroke-miterlimit="4"/><path stroke-linecap="butt" transform="matrix(0.749554, 0, 0, 0.75, 207.588168, 148.141161)" fill="none" stroke-linejoin="miter" d="M 0.00223504 2.999285 L 105.06995 2.999285 " stroke="#f3da38" stroke-width="6" stroke-opacity="1" stroke-miterlimit="4"/><path stroke-linecap="butt" transform="matrix(0.000000000000002913, -0.759494, 0.75, 0.000000000000002877, 147.95957, 161.502484)" fill="none" stroke-linejoin="miter" d="M -0.0018729 3.001824 L 14.815771 3.001824 " stroke="#f3da38" stroke-width="6" stroke-opacity="1" stroke-miterlimit="4"/><g fill="#004aad" fill-opacity="1"><g transform="translate(297.054359, 197.177757)"><g><path d="M 26.015625 -23.6875 L 26.015625 0 L 18.75 0 L 18.75 -3.21875 C 18.019531 -2.175781 17.023438 -1.335938 15.765625 -0.703125 C 14.503906 -0.0664062 13.109375 0.25 11.578125 0.25 C 9.773438 0.25 8.175781 -0.148438 6.78125 -0.953125 C 5.394531 -1.765625 4.320312 -2.929688 3.5625 -4.453125 C 2.800781 -5.984375 2.421875 -7.78125 2.421875 -9.84375 L 2.421875 -23.6875 L 9.640625 -23.6875 L 9.640625 -10.828125 C 9.640625 -9.234375 10.046875 -8 10.859375 -7.125 C 11.679688 -6.25 12.785156 -5.8125 14.171875 -5.8125 C 15.585938 -5.8125 16.703125 -6.25 17.515625 -7.125 C 18.335938 -8 18.75 -9.234375 18.75 -10.828125 L 18.75 -23.6875 Z M 26.015625 -23.6875 "/></g></g></g><g fill="#004aad" fill-opacity="1"><g transform="translate(328.243839, 197.177757)"><g><path d="M 9.890625 -20.328125 C 10.597656 -21.429688 11.570312 -22.320312 12.8125 -23 C 14.0625 -23.675781 15.519531 -24.015625 17.1875 -24.015625 C 19.132812 -24.015625 20.898438 -23.519531 22.484375 -22.53125 C 24.078125 -21.539062 25.332031 -20.125 26.25 -18.28125 C 27.164062 -16.445312 27.625 -14.3125 27.625 -11.875 C 27.625 -9.445312 27.164062 -7.304688 26.25 -5.453125 C 25.332031 -3.597656 24.078125 -2.164062 22.484375 -1.15625 C 20.898438 -0.15625 19.132812 0.34375 17.1875 0.34375 C 15.539062 0.34375 14.085938 0.00390625 12.828125 -0.671875 C 11.578125 -1.359375 10.597656 -2.238281 9.890625 -3.3125 L 9.890625 11.28125 L 2.625 11.28125 L 2.625 -23.6875 L 9.890625 -23.6875 Z M 20.25 -11.875 C 20.25 -13.6875 19.742188 -15.109375 18.734375 -16.140625 C 17.734375 -17.179688 16.492188 -17.703125 15.015625 -17.703125 C 13.578125 -17.703125 12.351562 -17.175781 11.34375 -16.125 C 10.34375 -15.082031 9.84375 -13.65625 9.84375 -11.84375 C 9.84375 -10.03125 10.34375 -8.597656 11.34375 -7.546875 C 12.351562 -6.503906 13.578125 -5.984375 15.015625 -5.984375 C 16.460938 -5.984375 17.695312 -6.515625 18.71875 -7.578125 C 19.738281 -8.640625 20.25 -10.070312 20.25 -11.875 Z M 20.25 -11.875 "/></g></g></g></svg>